<?xml version="1.0" encoding="utf-8"?>
<!-- Generator: Adobe Illustrator 26.5.0, SVG Export Plug-In . SVG Version: 6.00 Build 0)  -->
<svg version="1.1" id="Camada_1" xmlns="http://www.w3.org/2000/svg" xmlns:xlink="http://www.w3.org/1999/xlink" x="0px" y="0px"
	 viewBox="0 0 118 56" style="enable-background:new 0 0 118 56;" xml:space="preserve">
<style type="text/css">
	.st0{fill:url(#SVGID_1_);}
	.st1{fill:#F5F5F5;}
</style>
<g>
	
		<linearGradient id="SVGID_1_" gradientUnits="userSpaceOnUse" x1="340.6378" y1="-348.9449" x2="340.6378" y2="-404.9449" gradientTransform="matrix(1 0 0 -1 -281.6378 -348.9449)">
		<stop  offset="0" style="stop-color:#C49006"/>
		<stop  offset="1" style="stop-color:#B8640E"/>
	</linearGradient>
	<path class="st0" d="M28,0h62c15.5,0,28,12.5,28,28l0,0c0,15.5-12.5,28-28,28H28C12.5,56,0,43.5,0,28l0,0C0,12.5,12.5,0,28,0z"/>
	<path class="st1" d="M32,32.5c3,0,5.5-2.5,5.5-5.5S35,21.5,32,21.5S26.5,24,26.5,27S29,32.5,32,32.5z"/>
	<path class="st1" d="M32,15c-2.6,0-5.1,0.8-7.2,2.2C22.6,18.6,21,20.6,20,23c-1,2.4-1.2,5-0.7,7.5c0.5,2.5,1.7,4.8,3.6,6.7
		c1.8,1.8,4.1,3.1,6.7,3.6C32,41.3,34.6,41,37,40c2.4-1,4.4-2.7,5.8-4.8c1.4-2.1,2.2-4.7,2.2-7.2c0-3.4-1.4-6.7-3.8-9.2
		C38.7,16.4,35.4,15,32,15z M40.2,35.3c-0.8-1.2-1.9-2.1-3.1-2.9c-1.4,1.3-3.2,2.1-5.2,2.1s-3.8-0.7-5.2-2.1
		c-1.2,0.7-2.3,1.7-3.1,2.9c-1.4-1.6-2.3-3.5-2.6-5.6s0-4.2,0.8-6.2c0.9-1.9,2.3-3.6,4.1-4.7c1.8-1.2,3.9-1.8,6-1.8s4.2,0.6,6,1.8
		c1.8,1.2,3.2,2.8,4.1,4.7c0.9,1.9,1.2,4.1,0.8,6.2S41.6,33.7,40.2,35.3z"/>
	<path class="st1" d="M61.2,34V22.8h7.2v2h-5.1v2.4h3.9v2h-3.9V32h5.2v2H61.2z M69.9,34v-8h1.9l0.1,1.5l-0.5-0.6
		c0.3-0.3,0.7-0.5,1.1-0.7c0.4-0.2,0.9-0.3,1.5-0.3c1,0,1.8,0.3,2.3,1c0.5,0.7,0.7,1.6,0.7,2.6V34h-2v-4.3c0-0.7-0.1-1.3-0.4-1.7
		c-0.2-0.4-0.6-0.5-1.2-0.5c-0.5,0-0.8,0.1-1.1,0.3c-0.3,0.2-0.5,0.5-0.8,0.9l0.4-1V34H69.9z M81.3,34.2c-0.5,0-0.9-0.1-1.2-0.3
		c-0.3-0.2-0.5-0.5-0.7-0.8s-0.2-0.7-0.2-1v-4.4H78l0.2-1.6h1v-1.8l2-0.2v2h1.8v1.6h-1.8v3.6c0,0.4,0,0.7,0.1,0.9
		c0,0.2,0.2,0.3,0.3,0.3c0.2,0,0.4,0.1,0.8,0.1h0.5l-0.2,1.6H81.3z M84.2,34v-8H86l0,0.8c0.2-0.2,0.5-0.4,0.9-0.7
		c0.4-0.2,0.8-0.3,1.2-0.3c0.1,0,0.2,0,0.4,0l-0.1,2c-0.1,0-0.2-0.1-0.4-0.1c-0.1,0-0.2,0-0.3,0c-0.3,0-0.6,0.1-0.9,0.2
		c-0.3,0.2-0.5,0.3-0.6,0.6V34H84.2z M91.1,34.2c-0.4,0-0.8-0.1-1.2-0.3c-0.4-0.2-0.6-0.5-0.8-0.8s-0.3-0.8-0.3-1.3
		c0-0.5,0.1-0.8,0.3-1.2c0.2-0.3,0.5-0.6,0.8-0.8c0.3-0.2,0.7-0.4,1.1-0.5c0.4-0.1,0.8-0.2,1.2-0.3c0.4-0.1,0.7-0.1,1-0.1
		c0-0.5-0.1-0.8-0.4-1c-0.2-0.2-0.6-0.3-1.1-0.3c-0.4,0-0.7,0.1-1,0.2c-0.3,0.1-0.7,0.2-1.1,0.5l-0.2-1.6c0.5-0.2,1-0.4,1.4-0.5
		c0.5-0.1,1-0.2,1.5-0.2c0.6,0,1.1,0.1,1.5,0.3c0.4,0.2,0.8,0.6,1,1c0.2,0.5,0.4,1.1,0.4,1.9v2.2c0,0.4,0,0.7,0.1,0.9
		c0,0.2,0.1,0.3,0.2,0.3s0.2,0.1,0.4,0.1h0.3l-0.2,1.6h-0.7c-0.3,0-0.6,0-0.8-0.1c-0.2-0.1-0.4-0.2-0.6-0.3
		c-0.2-0.1-0.3-0.3-0.4-0.5c-0.3,0.3-0.6,0.5-1.1,0.7C92,34.1,91.6,34.2,91.1,34.2z M91.9,32.6c0.2,0,0.4,0,0.7-0.1
		c0.3-0.1,0.5-0.2,0.7-0.4v-1.8c-0.4,0-0.7,0.1-1.1,0.2c-0.4,0.1-0.7,0.3-0.9,0.5s-0.4,0.5-0.4,0.8c0,0.3,0.1,0.6,0.3,0.7
		C91.3,32.6,91.6,32.6,91.9,32.6z M97.3,34v-8h1.9l0,0.8c0.2-0.2,0.5-0.4,0.9-0.7c0.4-0.2,0.8-0.3,1.2-0.3c0.1,0,0.2,0,0.4,0l-0.1,2
		c-0.1,0-0.2-0.1-0.4-0.1c-0.1,0-0.2,0-0.3,0c-0.3,0-0.6,0.1-0.9,0.2c-0.3,0.2-0.5,0.3-0.6,0.6V34H97.3z"/>
</g>
</svg>
