<?xml version="1.0" encoding="utf-8"?>
<!-- Generator: Adobe Illustrator 26.5.0, SVG Export Plug-In . SVG Version: 6.00 Build 0)  -->
<svg version="1.1" id="Camada_1" xmlns="http://www.w3.org/2000/svg" xmlns:xlink="http://www.w3.org/1999/xlink" x="0px" y="0px"
	 viewBox="0 0 118 56" style="enable-background:new 0 0 118 56;" xml:space="preserve">
<style type="text/css">
	.st0{fill:#1A1A1A;}
</style>
<g>
	<path class="st0" d="M32,32.5c3.04,0,5.5-2.46,5.5-5.5s-2.46-5.5-5.5-5.5s-5.5,2.46-5.5,5.5S28.96,32.5,32,32.5z"/>
	<path class="st0" d="M32,15c-2.57,0-5.08,0.76-7.22,2.19c-2.14,1.43-3.8,3.46-4.79,5.83c-0.98,2.38-1.24,4.99-0.74,7.51
		c0.5,2.52,1.74,4.84,3.56,6.66c1.82,1.82,4.13,3.06,6.66,3.56c2.52,0.5,5.14,0.24,7.51-0.74c2.38-0.98,4.41-2.65,5.83-4.79
		C44.24,33.08,45,30.57,45,28c-0.01-3.45-1.38-6.75-3.81-9.19C38.75,16.38,35.45,15.01,32,15L32,15z M40.22,35.3
		c-0.81-1.16-1.85-2.14-3.06-2.88c-1.39,1.33-3.24,2.07-5.16,2.07s-3.77-0.74-5.16-2.07c-1.21,0.73-2.25,1.71-3.06,2.88
		c-1.41-1.59-2.33-3.54-2.65-5.64s-0.03-4.24,0.84-6.17c0.87-1.93,2.28-3.58,4.06-4.73C27.8,17.61,29.88,17,32,17
		s4.2,0.61,5.98,1.76c1.78,1.15,3.19,2.79,4.06,4.73c0.87,1.93,1.16,4.08,0.84,6.17S41.63,33.71,40.22,35.3z"/>
</g>
</svg>
